<svg xmlns="http://www.w3.org/2000/svg" xmlns:xlink="http://www.w3.org/1999/xlink" width="1147.669" height="146.477"><g fill="#4d4d4d"><use xlink:href="#B" opacity=".3"/><use xlink:href="#B"/></g><use xlink:href="#C" opacity=".3" fill="#1a1a1a"/><use xlink:href="#C" fill="#0078ef"/><use xlink:href="#D" opacity=".3" fill="#1a1a1a"/><use xlink:href="#D" fill="#0078ef"/><path d="M245.07 116.563c-2.617 4.796-6.054 9.096-10.156 12.705a1.41 1.41.0 00-.064 2.035q1.6 1.667 3.35 3.182c2.55 2.205 6.173 2.665 9.192 1.165a49.49 49.49.0 0016.931-13.911h0q.8-.974 1.56-2a2.84 2.84.0 00.226-3.079 191.9 191.9.0 01-9.7-20.7.7.7.0 00-1.3-.007 182.07 182.07.0 01-9.62 19.84zm-38.42-40.508h0c5.75-14.843 11.927-29.815 19.968-41.9a1.4 1.4.0 00-.04-1.621 71.37 71.37.0 00-1.693-2.173h0c-2-2.577-4.248-4.95-6.713-7.085a8.39 8.39.0 00-9.226-1.193 49.45 49.45.0 00-16.93 13.912h0a68.74 68.74.0 00-1.565 2.007 2.82 2.82.0 00-.237 3.041c7.1 13.08 10.2 23.806 15.53 37.3l.907-2.298z" opacity=".2" fill="#1a1a1a"/><path d="M245.07 116.563c-2.617 4.796-6.054 9.096-10.156 12.705a1.41 1.41.0 00-.064 2.035q1.6 1.667 3.35 3.182c2.55 2.205 6.173 2.665 9.192 1.166a49.49 49.49.0 0016.93-13.912h0q.8-.974 1.56-2a2.84 2.84.0 00.226-3.079c-3.643-6.7-6.882-13.613-9.7-20.7a.7.7.0 00-1.3-.007 182.13 182.13.0 01-9.621 19.84zm-38.42-40.508h0c5.75-14.843 11.927-29.815 19.968-41.9a1.4 1.4.0 00-.04-1.621 71.37 71.37.0 00-1.693-2.173h0c-2-2.577-4.248-4.95-6.713-7.085a8.39 8.39.0 00-9.226-1.193 49.45 49.45.0 00-16.93 13.912h0a68.74 68.74.0 00-1.565 2.007 2.82 2.82.0 00-.237 3.041c6.8 12.535 9.937 22.9 14.876 35.63a.7.7.0 001.312.0l.25-.628z" fill="#0078ef"/><use xlink:href="#E" opacity=".3" fill="#1a1a1a"/><use xlink:href="#E" fill="#f88a10"/><use xlink:href="#F" opacity=".3" fill="#1a1a1a"/><use xlink:href="#F" fill="#f88a10"/><path d="M132.394 41.18a46.73 46.73.0 0110.151-12.7c.287-.258.456-.622.468-1.008a1.42 1.42.0 00-.404-1.036q-1.6-1.666-3.345-3.178c-2.55-2.205-6.173-2.665-9.192-1.165-6.612 3.314-12.398 8.068-16.93 13.912h0q-.8.974-1.56 2a2.84 2.84.0 00-.226 3.08 191.69 191.69.0 019.694 20.69c.107.266.364.44.65.442s.546-.17.656-.435a181.84 181.84.0 019.618-19.833zm38.418 40.505h0c-5.75 14.843-11.927 29.814-19.967 41.9a1.4 1.4.0 00.04 1.623 70.13 70.13.0 001.692 2.173h0a49.48 49.48.0 006.713 7.085 8.39 8.39.0 009.226 1.193c6.612-3.313 12.398-8.067 16.93-13.9h0q.8-.98 1.564-2.006a2.82 2.82.0 00.237-3.042c-6.8-12.536-9.936-22.9-14.876-35.632a.7.7.0 00-1.31.0z" opacity=".2" fill="#1a1a1a"/><path d="M132.394 41.18a46.75 46.75.0 0110.156-12.705 1.41 1.41.0 00.064-2.034q-1.6-1.67-3.35-3.183c-2.55-2.205-6.173-2.665-9.192-1.165-6.612 3.314-12.398 8.068-16.93 13.912h0q-.8.974-1.56 2a2.84 2.84.0 00-.226 3.08c3.64 6.698 6.877 13.608 9.694 20.692.107.266.364.44.65.442s.546-.17.656-.435a181.85 181.85.0 019.618-19.834zm38.418 40.505h0c-5.75 14.844-11.927 29.815-19.968 41.9a1.4 1.4.0 00.04 1.621q.833 1.1 1.693 2.174h0a49.48 49.48.0 006.713 7.085 8.39 8.39.0 009.226 1.193c6.612-3.313 12.398-8.067 16.93-13.9h0q.8-.98 1.565-2.006a2.82 2.82.0 00.236-3.042c-6.8-12.535-9.936-22.9-14.875-35.63a.7.7.0 00-1.312.0q-.124.313-.25.626z" fill="#f88a10"/><defs><path id="B" d="M507.17 74.175c.06-5.875-.815-11.722-2.59-17.323-1.593-4.988-4.17-9.606-7.578-13.58a34.26 34.26.0 00-12.238-8.857c-5.255-2.15-10.888-3.222-16.565-3.152a39.58 39.58.0 00-16.763 3.609 36.57 36.57.0 00-12.763 9.974V33.828h-16.14v101.37h16.73v-62c-.047-4.766 1.153-9.462 3.48-13.622 2.214-3.94 5.456-7.205 9.38-9.446a27.3 27.3.0 0113.714-3.51c4.78-.13 9.502 1.097 13.613 3.54 3.658 2.276 6.56 5.587 8.333 9.514a32.32 32.32.0 012.854 13.91v61.6h16.534v-61.02zM610.114 103.7a31.92 31.92.0 01-11.744 13.779q-7.58 4.87-18.37 4.92a33.88 33.88.0 01-12.237-2.262c-3.943-1.52-7.578-3.744-10.727-6.562a35.35 35.35.0 01-8.037-10.532 40.9 40.9.0 01-4.035-14.106h85.23c.063-6.713-.855-13.4-2.724-19.847a56.05 56.05.0 00-7.677-16.009c-3.127-4.548-6.97-8.56-11.382-11.876-4.25-3.194-8.977-5.696-14.008-7.414a48.04 48.04.0 00-15.386-2.527c-6.837-.01-13.6 1.42-19.847 4.2-6.1 2.734-11.607 6.636-16.21 11.485a53.8 53.8.0 00-10.925 16.962 54.9 54.9.0 00-4 20.7c-.034 7.13 1.337 14.2 4.034 20.8 2.545 6.274 6.3 12 11.024 16.83 4.71 4.787 10.316 8.6 16.5 11.22 6.455 2.73 13.396 4.126 20.405 4.1a55.36 55.36.0 0021.225-3.97c6.22-2.554 11.78-6.48 16.272-11.483a51.59 51.59.0 0010.334-18.4zm-64.168-29.72a38.73 38.73.0 015.019-11.615 36.47 36.47.0 017.907-8.659 34.83 34.83.0 019.677-5.412 30.29 30.29.0 0124.572 1.606 35 35 0 0111.548 9.58c3.323 4.293 5.714 9.23 7.02 14.5zM694.16 31.267a49.26 49.26.0 00-20.077 4.2 50.5 50.5.0 00-16.174 11.484c-4.642 4.94-8.303 10.717-10.8 17.024a56.05 56.05.0 00-3.937 20.83 54.64 54.64.0 003.937 20.537 51.99 51.99.0 0010.793 16.763 49.71 49.71.0 0036.248 15.454 49.71 49.71.0 0036.349-15.453c4.614-4.85 8.255-10.54 10.726-16.763 2.595-6.535 3.92-13.506 3.9-20.537.02-7.127-1.302-14.194-3.9-20.83-2.475-6.298-6.114-12.074-10.726-17.027a50.54 50.54.0 00-16.173-11.484c-6.357-2.8-13.23-4.23-20.177-4.2zm0 90.94c-4.566-.008-9.076-1.005-13.22-2.92a34.55 34.55.0 01-10.826-8.037c-3.146-3.475-5.625-7.5-7.313-11.874-1.788-4.648-2.7-9.586-2.69-14.566a41.69 41.69.0 012.689-14.861 39.42 39.42.0 017.316-12.137c3.03-3.422 6.71-6.21 10.826-8.2 4.13-1.966 8.647-2.986 13.22-2.984 4.606-.005 9.156 1.014 13.32 2.984a34.42 34.42.0 0110.891 8.2 38.9 38.9.0 017.35 12.137c1.794 4.75 2.705 9.785 2.69 14.86a40.32 40.32.0 01-2.689 14.566c-1.688 4.382-4.18 8.4-7.35 11.876-3.062 3.374-6.764 6.105-10.89 8.037a31.99 31.99.0 01-13.319 2.92zm115.15-2.53a32.86 32.86.0 01-8.89-.526c-2.7-.545-5.25-1.664-7.48-3.28a16.42 16.42.0 01-5.151-6.791c-1.354-3.513-2-7.26-1.9-11.022v-48.28h23.03V33.828H785.9V12.175h-16.537v21.653h-13.78v15.947h13.78v48.3c-.092 5.807.898 11.58 2.92 17.024 1.755 4.627 4.563 8.782 8.2 12.138 3.617 3.227 7.944 5.554 12.63 6.792 5.3 1.355 10.8 1.69 16.205.984v-15.328zm93.5-15.977a31.92 31.92.0 01-11.744 13.779q-7.58 4.87-18.37 4.92c-4.184.008-8.333-.76-12.238-2.262a34.9 34.9.0 01-10.725-6.562c-3.32-2.973-6.047-6.546-8.04-10.532a40.9 40.9.0 01-4.034-14.106h85.23a69.01 69.01.0 00-2.723-19.847 56.12 56.12.0 00-7.677-16.009 51.07 51.07.0 00-11.384-11.876 50.46 50.46.0 00-14.007-7.414 48.04 48.04.0 00-15.386-2.527 48.64 48.64.0 00-19.848 4.2c-6.1 2.734-11.604 6.635-16.205 11.484-4.68 4.914-8.386 10.67-10.924 16.962a55.57 55.57.0 00.031 41.5 52.06 52.06.0 0011.025 16.83c4.71 4.787 10.316 8.6 16.5 11.22a51.87 51.87.0 0020.405 4.1c7.267.083 14.48-1.266 21.225-3.97 6.22-2.554 11.78-6.48 16.272-11.483 4.676-5.356 8.194-11.62 10.333-18.4zm-64.168-29.72a38.71 38.71.0 015.018-11.615 36.49 36.49.0 017.907-8.659c2.916-2.31 6.182-4.136 9.676-5.412a30.29 30.29.0 0124.572 1.606c4.497 2.32 8.437 5.59 11.55 9.58a39.07 39.07.0 017.021 14.5zM992.56 31.465c-4.018-.45-8.082-.262-12.04.558-4.105.822-8.034 2.354-11.612 4.527a31.6 31.6.0 00-9.416 8.693V33.828h-16.13v101.37h16.73V76.54c-.087-4.522.808-9 2.623-13.153a24.05 24.05.0 017.054-9.089c3.057-2.397 6.575-4.138 10.335-5.117a39.73 39.73.0 0112.457-1.182V31.465zM1028.186.0h-16.726v19.875h16.73V0zm0 33.828h-16.726v101.37h16.73V33.828zm119.48 69.875h-17.905a34.9 34.9.0 01-7.086 9.711 30.74 30.74.0 01-9.908 6.432 32.8 32.8.0 01-12.334 2.361 31.2 31.2.0 01-13.222-2.953 33.93 33.93.0 01-10.824-8c-3.157-3.506-5.637-7.565-7.316-11.974a40.58 40.58.0 01-2.69-14.664c-.014-5.034.898-10.027 2.7-14.73 1.678-4.447 4.158-8.548 7.316-12.1a34.42 34.42.0 0110.824-8.17c4.13-1.966 8.648-2.985 13.222-2.984a31.33 31.33.0 0122.111 8.792c2.926 2.816 5.365 6.097 7.217 9.71h17.912a51.53 51.53.0 00-10.268-17.88 47.33 47.33.0 00-16.207-11.744 51.08 51.08.0 00-20.765-4.233c-6.795-.01-13.515 1.42-19.716 4.2a50.6 50.6.0 00-16.142 11.484 53.76 53.76.0 00-10.922 16.962 54.86 54.86.0 00-4 20.7c-.024 7.073 1.335 14.082 4 20.633a52.79 52.79.0 0010.922 16.83 49.6 49.6.0 0016.142 11.319 48.5 48.5.0 0019.716 4.166 51.49 51.49.0 0020.83-4.233c6.182-2.707 11.7-6.713 16.207-11.745 4.607-5.19 8.08-11.282 10.2-17.9z"/><path id="C" d="M247.98 141.085c21.106 10.772 46.9 5.015 61.4-13.71h0c10.5-12.927 18.653-30.812 25.505-48.5h0c5.72-14.406 8.82-25.607 16.8-39.75l.417-.757a46.65 46.65.0 0125.352-21.657l-.1-.05c-21.106-10.772-46.9-5.015-61.4 13.71h0c-10.5 12.927-17.95 30.812-24.8 48.5h0c-5.72 14.406-9.526 25.606-17.5 39.75l-.417.758c-5.494 10.096-14.522 17.807-25.352 21.656z"/><path id="D" d="M78.963 141.085c21.106 10.772 46.9 5.015 61.4-13.71h0c10.5-12.927 18.654-30.812 25.506-48.5h0c5.72-14.406 8.82-25.607 16.8-39.75l.417-.757c5.495-10.095 14.522-17.807 25.352-21.657l-.095-.05c-21.106-10.772-46.9-5.015-61.4 13.71h0c-10.5 12.927-17.95 30.812-24.8 48.5h0c-5.72 14.406-9.526 25.606-17.5 39.75l-.417.758c-5.494 10.096-14.522 17.807-25.352 21.656z"/><path id="E" d="M129.48 16.66c-21.106-10.77-46.887-5.01-61.406 13.714h0c-10.5 12.927-18.653 30.812-25.505 48.5h0c-5.72 14.406-8.82 25.606-16.8 39.75l-.417.758C19.86 129.477 10.83 137.188.001 141.037l.1.05c21.106 10.772 46.9 5.015 61.4-13.71h0c10.5-12.927 17.95-30.812 24.8-48.5h0c5.72-14.406 9.526-25.607 17.5-39.75l.417-.757a46.65 46.65.0 0125.347-21.659z"/><path id="F" d="M298.494 16.66c-21.106-10.772-46.9-5.015-61.4 13.71h0c-10.5 12.927-18.653 30.812-25.505 48.5h0c-5.72 14.406-8.82 25.606-16.8 39.75l-.417.758a46.65 46.65.0 01-25.352 21.656l.095.05c21.106 10.772 46.9 5.015 61.4-13.71h0c10.5-12.927 17.95-30.812 24.8-48.5h0c5.72-14.406 9.526-25.607 17.5-39.75l.417-.757a46.65 46.65.0 0125.352-21.657z"/></defs></svg>